{
    "asset" : {
        "generator" : "Khronos glTF Blender I/O v1.6.16",
        "version" : "2.0"
    },
    "scene" : 0,
    "scenes" : [
        {
            "name" : "Scene",
            "nodes" : [
                0,
                1,
                2,
                3
            ]
        }
    ],
    "nodes" : [
        {
            "mesh" : 0,
            "name" : "Cubo",
            "scale" : [
                1.0760596990585327,
                1,
                1
            ]
        },
        {
            "name" : "Sol",
            "rotation" : [
                0.31764137744903564,
                0.1476486772298813,
                -0.14166377484798431,
                0.9258699417114258
            ],
            "translation" : [
                0,
                0.9835264682769775,
                2.3874638080596924
            ]
        },
        {
            "name" : "C\u00e1mara",
            "rotation" : [
                0.665507435798645,
                -0.047876857221126556,
                0.04284771904349327,
                0.7436206936836243
            ],
            "translation" : [
                -0.9647843241691589,
                0.7138190865516663,
                6.908768653869629
            ]
        },
        {
            "mesh" : 1,
            "name" : "Cubo.001",
            "rotation" : [
                0,
                0,
                -0.2622421085834503,
                0.9650021195411682
            ],
            "scale" : [
                0.13771139085292816,
                0.1846977025270462,
                0.06823217123746872
            ],
            "translation" : [
                0.13074752688407898,
                0.9048457741737366,
                0.10284286737442017
            ]
        }
    ],
    "materials" : [
        {
            "doubleSided" : true,
            "name" : "Material",
            "pbrMetallicRoughness" : {
                "baseColorFactor" : [
                    1,
                    0.8511344194412231,
                    0.10928229242563248,
                    1
                ],
                "metallicFactor" : 0
            }
        },
        {
            "doubleSided" : true,
            "name" : "Material.003",
            "pbrMetallicRoughness" : {
                "baseColorFactor" : [
                    0,
                    0,
                    0,
                    1
                ],
                "metallicFactor" : 0
            }
        },
        {
            "doubleSided" : true,
            "name" : "Material.001",
            "pbrMetallicRoughness" : {
                "baseColorFactor" : [
                    0,
                    0,
                    0,
                    1
                ],
                "metallicFactor" : 0
            }
        },
        {
            "doubleSided" : true,
            "name" : "Material.002",
            "pbrMetallicRoughness" : {
                "baseColorFactor" : [
                    0.8000000715255737,
                    0.2165517807006836,
                    0.054656799882650375,
                    1
                ],
                "metallicFactor" : 0,
                "roughnessFactor" : 0.5
            }
        },
        {
            "doubleSided" : true,
            "name" : "Material.004",
            "pbrMetallicRoughness" : {
                "baseColorFactor" : [
                    0,
                    0,
                    0,
                    1
                ],
                "metallicFactor" : 0
            }
        }
    ],
    "meshes" : [
        {
            "name" : "Cubo",
            "primitives" : [
                {
                    "attributes" : {
                        "POSITION" : 0,
                        "NORMAL" : 1,
                        "TEXCOORD_0" : 2
                    },
                    "indices" : 3,
                    "material" : 0
                },
                {
                    "attributes" : {
                        "POSITION" : 4,
                        "NORMAL" : 5,
                        "TEXCOORD_0" : 6
                    },
                    "indices" : 7,
                    "material" : 1
                },
                {
                    "attributes" : {
                        "POSITION" : 8,
                        "NORMAL" : 9,
                        "TEXCOORD_0" : 10
                    },
                    "indices" : 11,
                    "material" : 2
                },
                {
                    "attributes" : {
                        "POSITION" : 12,
                        "NORMAL" : 13,
                        "TEXCOORD_0" : 14
                    },
                    "indices" : 15,
                    "material" : 3
                }
            ]
        },
        {
            "name" : "Cubo.001",
            "primitives" : [
                {
                    "attributes" : {
                        "POSITION" : 16,
                        "NORMAL" : 17,
                        "TEXCOORD_0" : 18
                    },
                    "indices" : 19,
                    "material" : 4
                }
            ]
        }
    ],
    "accessors" : [
        {
            "bufferView" : 0,
            "componentType" : 5126,
            "count" : 2404,
            "max" : [
                1.0032349824905396,
                0.88334721326828,
                0.8108213543891907
            ],
            "min" : [
                -0.9982030987739563,
                -1.1509917974472046,
                -0.8115888237953186
            ],
            "type" : "VEC3"
        },
        {
            "bufferView" : 1,
            "componentType" : 5126,
            "count" : 2404,
            "type" : "VEC3"
        },
        {
            "bufferView" : 2,
            "componentType" : 5126,
            "count" : 2404,
            "type" : "VEC2"
        },
        {
            "bufferView" : 3,
            "componentType" : 5123,
            "count" : 12081,
            "type" : "SCALAR"
        },
        {
            "bufferView" : 4,
            "componentType" : 5126,
            "count" : 23040,
            "max" : [
                0.526660144329071,
                -1.017707347869873,
                0.5612598061561584
            ],
            "min" : [
                -0.5266600847244263,
                -1.1579657793045044,
                0.10003948211669922
            ],
            "type" : "VEC3"
        },
        {
            "bufferView" : 5,
            "componentType" : 5126,
            "count" : 23040,
            "type" : "VEC3"
        },
        {
            "bufferView" : 6,
            "componentType" : 5126,
            "count" : 23040,
            "type" : "VEC2"
        },
        {
            "bufferView" : 7,
            "componentType" : 5123,
            "count" : 34560,
            "type" : "SCALAR"
        },
        {
            "bufferView" : 8,
            "componentType" : 5126,
            "count" : 65,
            "max" : [
                0.38520511984825134,
                0.3818538784980774,
                0.6909412741661072
            ],
            "min" : [
                -0.4131438732147217,
                0.16197644174098969,
                0.5401209592819214
            ],
            "type" : "VEC3"
        },
        {
            "bufferView" : 9,
            "componentType" : 5126,
            "count" : 65,
            "type" : "VEC3"
        },
        {
            "bufferView" : 10,
            "componentType" : 5126,
            "count" : 65,
            "type" : "VEC2"
        },
        {
            "bufferView" : 11,
            "componentType" : 5123,
            "count" : 183,
            "type" : "SCALAR"
        },
        {
            "bufferView" : 12,
            "componentType" : 5126,
            "count" : 2398,
            "max" : [
                0.24045361578464508,
                0.18886713683605194,
                1.0227876901626587
            ],
            "min" : [
                -0.24019935727119446,
                -0.1685009002685547,
                0.7251083850860596
            ],
            "type" : "VEC3"
        },
        {
            "bufferView" : 13,
            "componentType" : 5126,
            "count" : 2398,
            "type" : "VEC3"
        },
        {
            "bufferView" : 14,
            "componentType" : 5126,
            "count" : 2398,
            "type" : "VEC2"
        },
        {
            "bufferView" : 15,
            "componentType" : 5123,
            "count" : 14376,
            "type" : "SCALAR"
        },
        {
            "bufferView" : 16,
            "componentType" : 5126,
            "count" : 250,
            "max" : [
                0.8395062685012817,
                0.8395062685012817,
                0.8395065069198608
            ],
            "min" : [
                -2.7536959648132324,
                -1.4080402851104736,
                -0.8395067453384399
            ],
            "type" : "VEC3"
        },
        {
            "bufferView" : 17,
            "componentType" : 5126,
            "count" : 250,
            "type" : "VEC3"
        },
        {
            "bufferView" : 18,
            "componentType" : 5126,
            "count" : 250,
            "type" : "VEC2"
        },
        {
            "bufferView" : 19,
            "componentType" : 5123,
            "count" : 1152,
            "type" : "SCALAR"
        }
    ],
    "bufferViews" : [
        {
            "buffer" : 0,
            "byteLength" : 28848,
            "byteOffset" : 0
        },
        {
            "buffer" : 0,
            "byteLength" : 28848,
            "byteOffset" : 28848
        },
        {
            "buffer" : 0,
            "byteLength" : 19232,
            "byteOffset" : 57696
        },
        {
            "buffer" : 0,
            "byteLength" : 24162,
            "byteOffset" : 76928
        },
        {
            "buffer" : 0,
            "byteLength" : 276480,
            "byteOffset" : 101092
        },
        {
            "buffer" : 0,
            "byteLength" : 276480,
            "byteOffset" : 377572
        },
        {
            "buffer" : 0,
            "byteLength" : 184320,
            "byteOffset" : 654052
        },
        {
            "buffer" : 0,
            "byteLength" : 69120,
            "byteOffset" : 838372
        },
        {
            "buffer" : 0,
            "byteLength" : 780,
            "byteOffset" : 907492
        },
        {
            "buffer" : 0,
            "byteLength" : 780,
            "byteOffset" : 908272
        },
        {
            "buffer" : 0,
            "byteLength" : 520,
            "byteOffset" : 909052
        },
        {
            "buffer" : 0,
            "byteLength" : 366,
            "byteOffset" : 909572
        },
        {
            "buffer" : 0,
            "byteLength" : 28776,
            "byteOffset" : 909940
        },
        {
            "buffer" : 0,
            "byteLength" : 28776,
            "byteOffset" : 938716
        },
        {
            "buffer" : 0,
            "byteLength" : 19184,
            "byteOffset" : 967492
        },
        {
            "buffer" : 0,
            "byteLength" : 28752,
            "byteOffset" : 986676
        },
        {
            "buffer" : 0,
            "byteLength" : 3000,
            "byteOffset" : 1015428
        },
        {
            "buffer" : 0,
            "byteLength" : 3000,
            "byteOffset" : 1018428
        },
        {
            "buffer" : 0,
            "byteLength" : 2000,
            "byteOffset" : 1021428
        },
        {
            "buffer" : 0,
            "byteLength" : 2304,
            "byteOffset" : 1023428
        }
    ],
    "buffers" : [
        {
            "byteLength" : 1025732,
            "uri" : "data:application/octet-stream;base64,"
        }
    ]
}
